# xmcd CD database file
#
# Track frame offsets:
#	150
#	24705
#	57279
#	75387
#	101853
#	123144
#	143796
#	168387
#	191127
#	215640
#
# Disc length: 3122 seconds
#
# Revision: 0
# Processed by: cddbd v1.5.2PL0 Copyright (c) Steve Scherf et al.
# Submitted via: CDex 1.51
#
DISCID=8b0c300a
DTITLE=NARCÍS VIDAL TRIO - MONSTER'S GALLERY
DYEAR=2000
DGENRE=Jazz
TTITLE0=BEGUINE
TTITLE1=MONSTER'S GALLERY
TTITLE2=FASTERN
TTITLE3=NO DIRÉ RES MÉS
TTITLE4=TANGO
TTITLE5=TXACARERA
TTITLE6=DE BRESSOL
TTITLE7=COUNTRY
TTITLE8=LATIN
TTITLE9=LEVIATAN
EXTD=YEAR: 2000
EXTT0=
EXTT1=
EXTT2=
EXTT3=
EXTT4=
EXTT5=
EXTT6=
EXTT7=
EXTT8=
EXTT9=
PLAYORDER=
